# xmcd
#
# Track frame offsets:
# 150
# 16144
# 34830
# 65280
# 85578
# 99870
# 114613
# 158763
# 171381
# 188247
# 219914
# 259793
#
# Disc length: 3803 seconds
#
#
# Revision: 0
# Processed by: cddbd v1.4PL0 Copyright (c) Steve Scherf et al.
# Submitted via: FreeRIP 2.51 
#
DISCID=910ed90c
DTITLE=Stevie Ray Vaughan and Double Trouble - Live at the El Mocambo
DYEAR=1900
DGENRE=Blues
TTITLE0=Testify
TTITLE1=So Exited
TTITLE2=Voodoo Chile
TTITLE3=Pride and Joy
TTITLE4=Tell Me
TTITLE5=Mary Had A Little Lamb
TTITLE6=Texas Flood
TTITLE7=Love Struck Baby
TTITLE8=Hug Yoy Squeeze You
TTITLE9=Third Stone From The Sun
TTITLE10=Lenny
TTITLE11=Wham
EXTD=
EXTT0=
EXTT1=
EXTT2=
EXTT3=
EXTT4=
EXTT5=
EXTT6=
EXTT7=
EXTT8=
EXTT9=
EXTT10=
EXTT11=
PLAYORDER=
